<svg id="Arrow-right-red" xmlns="http://www.w3.org/2000/svg" width="31.5" height="31.5" viewBox="0 0 31.5 31.5">
  <path id="Path_19" data-name="Path 19" d="M15.75,0A15.75,15.75,0,1,0,31.5,15.75,15.75,15.75,0,0,0,15.75,0Zm0,29.925A14.175,14.175,0,1,1,29.925,15.75,14.175,14.175,0,0,1,15.75,29.925Zm0,0" fill="#df0d25"/>
  <path id="Path_20" data-name="Path 20" d="M171.968,128.194a.788.788,0,1,0-1.037,1.186l5.622,4.919-5.623,4.92a.788.788,0,1,0,1.037,1.186l6.3-5.513a.788.788,0,0,0,0-1.186Zm0,0" transform="translate(-158.062 -118.549)" fill="#df0d25"/>
</svg>
