<svg id="Web-design-icon" xmlns="http://www.w3.org/2000/svg" width="44.497" height="44.5" viewBox="0 0 44.497 44.5">
  <path id="Path_1" data-name="Path 1" d="M409.988.04H406.28a.927.927,0,1,0,0,1.854h3.708a2.781,2.781,0,0,1,2.781,2.781V21.361a.927.927,0,0,0,1.854,0V4.675A4.641,4.641,0,0,0,409.988.04Z" transform="translate(-370.127 -0.037)" fill="#df0d25"/>
  <path id="Path_2" data-name="Path 2" d="M43.59,25.034h-9.27V4.639a.927.927,0,0,0-.093-.414L32.373.517a.966.966,0,0,0-1.659,0L28.859,4.225a.927.927,0,0,0-.1.414v.927a.927.927,0,1,0,1.854,0V4.858L31.539,3l.927,1.854V25.034H30.611V18.544a.927.927,0,1,0-1.854,0v6.489H26.9V16.69h.927a.927.927,0,0,0,0-1.854H26.9v-.927a3.185,3.185,0,0,1,2.147-2.828.927.927,0,0,0,.537-1.3L24.952.513A.806.806,0,0,0,24.8.3a.908.908,0,0,0-1.355,0,.806.806,0,0,0-.152.209l-4.635,9.27a.933.933,0,0,0,.532,1.292,3.188,3.188,0,0,1,2.152,2.834v.927h-.927a.927.927,0,1,0,0,1.854h.927v8.343H19.487V18.545a.927.927,0,1,0-1.854,0v6.489H12.071V20.4h2.781a.927.927,0,1,0,0-1.854H12.071V15.764h1.854a.927.927,0,0,0,0-1.854H12.071V11.128h2.781a.927.927,0,0,0,0-1.854H12.071V6.493h1.854a.927.927,0,0,0,0-1.854H12.071V1.858h5.562V5.566a.927.927,0,1,0,1.854,0V1.858A1.854,1.854,0,0,0,17.633,0H12.071a1.854,1.854,0,0,0-1.854,1.854V25.034H5.582a.927.927,0,1,0,0,1.854H42.663V30.6a2.781,2.781,0,0,1-2.781,2.781H4.655A2.781,2.781,0,0,1,1.874,30.6V4.639A2.781,2.781,0,0,1,4.655,1.858H7.436A.927.927,0,0,0,7.436,0H4.655A4.641,4.641,0,0,0,.02,4.639V30.6a4.641,4.641,0,0,0,4.635,4.635h10.2V39.37l-2.368,1.576a.927.927,0,0,0-.413.774v.927A1.854,1.854,0,0,0,13.925,44.5H30.611a1.854,1.854,0,0,0,1.854-1.854V41.72a.927.927,0,0,0-.413-.771L29.684,39.37V38.012a.927.927,0,0,0-1.854,0v1.854a.927.927,0,0,0,.413.771l2.368,1.579v.431H13.925v-.431l2.368-1.576a.927.927,0,0,0,.413-.774V35.231H39.881A4.641,4.641,0,0,0,44.516,30.6V25.961A.927.927,0,0,0,43.59,25.034Zm-18.54,0H23.2V16.69h1.854Zm0-11.124v.927H23.2v-.927a4.728,4.728,0,0,0-2.46-4.131L23.2,4.858V9.274a.927.927,0,0,0,1.854,0V4.858l2.46,4.921A4.721,4.721,0,0,0,25.049,13.909Z" transform="translate(-0.02 -0.001)" fill="#df0d25"/>
</svg>
