<svg id="Planning-icon" xmlns="http://www.w3.org/2000/svg" width="45" height="45" viewBox="0 0 45 45">
  <path id="Path_3" data-name="Path 3" d="M.946,143.4l-.938,1.459a.938.938,0,1,0,1.875,0Z" transform="translate(-0.007 -130.801)" fill="#0071d8"/>
  <path id="Path_4" data-name="Path 4" d="M37.5,0a7.507,7.507,0,0,0-7.435,6.562H4.689A4.507,4.507,0,0,0,0,10.888Q0,11.019,0,11.15v.111a.937.937,0,0,0,.638.875.928.928,0,0,0,.3.054.894.894,0,0,0,.3-.051v0a.937.937,0,0,0,.636-.887A2.675,2.675,0,0,1,4.689,8.439H30V37.5a.938.938,0,1,0,1.875,0A5.625,5.625,0,1,1,37.5,43.126H19.688a.938.938,0,0,0,0,1.875H37.5a7.51,7.51,0,0,0,7.364-6.077A.932.932,0,0,0,45,38.439V7.5A7.508,7.508,0,0,0,37.5,0Zm5.625,32.544a7.49,7.49,0,0,0-11.25,0V7.5a5.625,5.625,0,1,1,11.25,0Z" transform="translate(-0.001 -0.002)" fill="#0071d8"/>
  <path id="Path_5" data-name="Path 5" d="M131.682,128.57a.937.937,0,0,0-1.723,0c-1.951,4.567-1.951,4.838-1.951,5.056v17.812a.938.938,0,0,0,1.875,0V133.73c.094-.308.474-1.254.938-2.374.463,1.119.844,2.062.938,2.374v20.521h-2.812a.938.938,0,0,0-.938.938v4.687a1.875,1.875,0,0,0,1.875,1.875h1.875a1.875,1.875,0,0,0,1.875-1.875v-26.25C133.633,133.408,133.633,133.137,131.682,128.57Zm.076,31.305h-1.875v-3.75h1.875Z" transform="translate(-116.758 -116.751)" fill="#0071d8"/>
  <path id="Path_6" data-name="Path 6" d="M7.5,192H1.88A1.875,1.875,0,0,0,0,193.877v24.375a1.836,1.836,0,0,0,1.8,1.875H7.5a1.836,1.836,0,0,0,1.875-1.8c0-.026,0-.052,0-.078V193.877A1.875,1.875,0,0,0,7.5,192Zm0,26.25-5.625-.026v-4.661H3.755a.938.938,0,0,0,0-1.875H1.88V207H4.692a.938.938,0,0,0,0-1.875H1.88v-4.687H3.755a.938.938,0,0,0,0-1.875H1.88v-4.687H7.5v24.375Z" transform="translate(-0.004 -175.127)" fill="#0071d8"/>
  <path id="Path_7" data-name="Path 7" d="M219.9,160h-5.625a.938.938,0,1,0,0,1.875H219.9v3.75h-5.625a.938.938,0,0,0-.938.938v13.125a.938.938,0,0,0,1.875,0V167.5H219.9v15h-5.625a.938.938,0,0,0,0,1.875H219.9a1.875,1.875,0,0,0,1.875-1.875V161.877A1.875,1.875,0,0,0,219.9,160Z" transform="translate(-194.591 -145.94)" fill="#0071d8"/>
</svg>
