<svg id="Web-icon" xmlns="http://www.w3.org/2000/svg" width="45.867" height="45.867" viewBox="0 0 45.867 45.867">
  <path id="Path_8" data-name="Path 8" d="M44.908,5.737a.956.956,0,0,0,.956-.956A4.606,4.606,0,0,0,41.435,0Q41.261,0,41.086,0H4.777A4.783,4.783,0,0,0,0,4.781V41.09a4.783,4.783,0,0,0,4.777,4.777H41.086a4.783,4.783,0,0,0,4.777-4.777V8.6a.956.956,0,0,0-.956-.956H5.733a.956.956,0,0,0,0,1.911h38.22V41.09a2.866,2.866,0,0,1-2.866,2.866H4.777A2.866,2.866,0,0,1,1.911,41.09V4.781A2.867,2.867,0,0,1,4.777,1.915h36.3a2.727,2.727,0,0,1,2.872,2.866A.956.956,0,0,0,44.908,5.737Z" transform="translate(0 0)" fill="#00d879"/>
  <path id="Path_9" data-name="Path 9" d="M56.2,42.7H54.289a.956.956,0,0,0,0,1.911H56.2a.956.956,0,1,0,0-1.911Z" transform="translate(-48.556 -38.879)" fill="#00d879"/>
  <path id="Path_10" data-name="Path 10" d="M120.2,42.7h-1.911a.956.956,0,1,0,0,1.911H120.2a.956.956,0,1,0,0-1.911Z" transform="translate(-106.823 -38.879)" fill="#00d879"/>
  <path id="Path_11" data-name="Path 11" d="M429.533,42.7h-1.911a.956.956,0,0,0,0,1.911h1.911a.956.956,0,1,0,0-1.911Z" transform="translate(-388.447 -38.879)" fill="#00d879"/>
  <path id="Path_12" data-name="Path 12" d="M86.775,138.7H68.621a.956.956,0,0,0,0,1.911H86.775a.956.956,0,0,1,.956.956V164.5a.956.956,0,0,1-.956.956H56.2a.956.956,0,0,1-.956-.956V141.571a.956.956,0,0,1,.956-.956h6.689v21.021a.956.956,0,1,0,1.911,0V139.66a.956.956,0,0,0-.956-.956H56.2a2.867,2.867,0,0,0-2.866,2.866V164.5a2.867,2.867,0,0,0,2.866,2.866H86.775a2.867,2.867,0,0,0,2.866-2.866V141.57A2.866,2.866,0,0,0,86.775,138.7Z" transform="translate(-48.556 -126.279)" fill="#00d879"/>
  <path id="Path_13" data-name="Path 13" d="M98.866,202.7H96.956a.956.956,0,1,0,0,1.911h1.911a.956.956,0,0,0,0-1.911Z" transform="translate(-87.401 -184.546)" fill="#00d879"/>
  <path id="Path_14" data-name="Path 14" d="M98.866,256.037H96.956a.956.956,0,1,0,0,1.911h1.911a.956.956,0,1,0,0-1.911Z" transform="translate(-87.401 -233.102)" fill="#00d879"/>
  <path id="Path_15" data-name="Path 15" d="M98.866,309.371H96.956a.956.956,0,0,0,0,1.911h1.911a.956.956,0,0,0,0-1.911Z" transform="translate(-87.401 -281.658)" fill="#00d879"/>
  <path id="Path_16" data-name="Path 16" d="M98.866,362.7H96.956a.956.956,0,1,0,0,1.911h1.911a.956.956,0,1,0,0-1.911Z" transform="translate(-87.401 -330.214)" fill="#00d879"/>
  <path id="Path_17" data-name="Path 17" d="M226.307,250.15,229.454,247a.955.955,0,1,0-1.351-1.351l-3.822,3.822a.956.956,0,0,0,0,1.351l3.822,3.822a.955.955,0,0,0,1.351-1.351Z" transform="translate(-203.935 -223.393)" fill="#00d879"/>
  <path id="Path_18" data-name="Path 18" d="M336.121,249.592,332.3,245.77a.955.955,0,0,0-1.351,1.351l3.146,3.146-3.146,3.146a.956.956,0,0,0,0,1.351h0a.956.956,0,0,0,1.351,0l3.822-3.822A.955.955,0,0,0,336.121,249.592Z" transform="translate(-301.047 -223.51)" fill="#00d879"/>
</svg>
